<?xml version="1.0" encoding="utf-8"?>
<!-- Generator: Adobe Illustrator 25.1.0, SVG Export Plug-In . SVG Version: 6.00 Build 0)  -->
<svg version="1.1" id="Layer_1" xmlns="http://www.w3.org/2000/svg" xmlns:xlink="http://www.w3.org/1999/xlink" x="0px" y="0px"
	 viewBox="0 0 100 100" style="enable-background:new 0 0 100 100;" xml:space="preserve">
<g>
	<path d="M50.96,9.17c1.62,0.45,2.77,1.57,3.92,2.72c2.82,2.82,5.67,5.6,8.54,8.37c0.3,0.29,0.82,0.49,1.23,0.5
		c3.27,0.04,6.54,0.02,9.81,0.02c3.4,0.01,5.53,2.13,5.54,5.51c0,0.8,0.01,1.6-0.01,2.39c-0.02,0.78-0.45,1.25-1.13,1.28
		c-0.7,0.03-1.22-0.47-1.25-1.26c-0.03-0.85,0-1.7-0.01-2.55c-0.02-1.86-1.11-2.97-2.98-2.98c-6.46-0.01-12.92,0-19.38,0
		c-9.83,0-19.67,0-29.5,0c-2.36,0-3.36,0.99-3.36,3.32c0,6.46,0,12.92-0.01,19.38c0,0.52,0.15,0.88,0.52,1.25
		c6.91,6.88,13.82,13.77,20.71,20.68c0.4,0.4,0.68,0.44,1.15,0.16c0.93-0.56,1.89-1.07,2.86-1.57c1.54-0.8,3.11-0.83,4.67-0.05
		c1,0.5,1.98,1.03,2.93,1.6c0.5,0.31,0.8,0.25,1.21-0.16c3.03-3.06,6.08-6.09,9.13-9.14c3.84-3.83,7.67-7.67,11.52-11.48
		c0.39-0.39,0.54-0.78,0.54-1.32c-0.02-3.77-0.01-7.55-0.01-11.32c0-0.27-0.02-0.54,0.03-0.79c0.14-0.65,0.55-1.04,1.23-1
		c0.68,0.04,1.08,0.44,1.11,1.12c0.03,0.69-0.04,1.39,0.03,2.07c0.04,0.38,0.2,0.83,0.45,1.09c1.31,1.35,2.66,2.67,4.03,3.98
		c1.2,1.15,1.76,2.53,1.76,4.2c-0.01,13.42,0,26.85-0.01,40.27c0,3.25-2.17,5.38-5.42,5.38c-4.04,0.01-8.08,0-12.12,0
		c-0.24,0-0.49,0.02-0.71-0.04c-0.61-0.16-0.96-0.56-0.94-1.21c0.02-0.61,0.38-0.98,0.96-1.11c0.25-0.06,0.53-0.03,0.79-0.03
		c4.04,0,8.08,0,12.12,0c1.46,0,2.36-0.66,2.82-2.07c-0.4-0.22-0.81-0.46-1.22-0.69c-10.19-5.6-20.39-11.19-30.56-16.83
		c-1.38-0.76-2.56-0.77-3.95,0C37.72,74.56,27.38,80.22,17.05,85.9c-0.25,0.14-0.5,0.29-0.75,0.43c0.19,1.17,1.12,1.99,2.36,2.1
		c0.32,0.03,0.64,0.01,0.96,0.01c14.25,0,28.49,0,42.74,0c1.28,0,1.86,0.38,1.84,1.22c-0.02,0.81-0.57,1.17-1.81,1.17
		c-14.35,0-28.71,0-43.06,0c-3.47,0-5.58-2.09-5.58-5.54c-0.01-7.02,0-14.03,0-21.05c0-0.24-0.01-0.48,0.04-0.71
		c0.11-0.56,0.46-0.89,1.04-0.93c0.6-0.05,1.05,0.21,1.22,0.8c0.09,0.32,0.1,0.68,0.1,1.02c0.01,6.06,0,12.12,0,18.18
		c0,0.31,0,0.62,0,1.08c8.65-4.75,17.16-9.43,25.55-14.04c-8.44-8.49-16.89-16.99-25.43-25.59c-0.04,0.47-0.11,0.89-0.11,1.32
		c-0.01,4.17,0,8.35-0.01,12.52c0,1.27-0.4,1.86-1.24,1.84c-0.81-0.02-1.15-0.56-1.15-1.83c0-4.17,0.03-8.35-0.01-12.52
		c-0.02-1.82,0.58-3.3,1.91-4.54c1.32-1.23,2.61-2.51,3.86-3.81c0.27-0.28,0.47-0.77,0.48-1.16c0.04-3.19,0.02-6.38,0.02-9.57
		c0.01-3.38,2.14-5.5,5.54-5.51c3.24-0.01,6.49-0.01,9.73,0.01c0.57,0,0.98-0.15,1.4-0.56c2.83-2.81,5.7-5.58,8.52-8.4
		c1.13-1.13,2.28-2.21,3.86-2.67C49.68,9.17,50.32,9.17,50.96,9.17z M83.77,44.07c-8.52,8.58-16.97,17.08-25.42,25.57
		c8.35,4.59,16.87,9.27,25.42,13.97C83.77,70.37,83.77,57.24,83.77,44.07z M39.63,20.72c6.96,0,13.81,0,20.75,0
		c-0.18-0.2-0.28-0.33-0.39-0.44c-2.61-2.57-5.22-5.14-7.84-7.7c-1.42-1.38-2.9-1.37-4.33,0.03c-2.54,2.49-5.08,4.98-7.62,7.48
		C40.03,20.27,39.87,20.46,39.63,20.72z M19.94,44.07c0-1.39,0-2.66,0-3.94c-0.68,0.67-1.34,1.31-1.99,1.95
		C18.58,42.71,19.23,43.36,19.94,44.07z M80.05,43.94c0.66-0.64,1.32-1.28,1.8-1.74c-0.6-0.64-1.23-1.31-1.8-1.92
		C80.05,41.44,80.05,42.72,80.05,43.94z"/>
	<path d="M52.94,47.22c-1.2,1.05-2.52,1.66-4.11,1.43c-1.85-0.27-3.17-1.34-4.04-2.93c-1.18-2.15-1.34-4.41-0.39-6.68
		c1.38-3.32,4.61-4.41,8.1-2.75c0.03-0.18,0.05-0.35,0.08-0.52c0.15-0.76,0.63-1.17,1.32-1.09c0.73,0.09,1.06,0.55,1.06,1.26
		c0,1.14-0.01,2.29-0.01,3.43c-0.01,1.91-0.02,3.83-0.01,5.74c0,1.59,1.1,2.26,2.43,1.39c0.6-0.39,1.14-1.07,1.42-1.73
		c2.6-6.04-1.98-11.12-6.63-12.14c-5.27-1.16-10.67,2.37-11.57,7.63c-0.96,5.57,2.76,10.68,8.29,11.37c0.29,0.04,0.58,0.07,0.87,0.1
		c0.8,0.1,1.27,0.6,1.2,1.29c-0.06,0.69-0.62,1.13-1.42,1.08c-1.91-0.11-3.71-0.62-5.38-1.56c-4.66-2.63-7.01-7.96-5.81-13.18
		c1.17-5.11,5.66-9,10.75-9.31c5.58-0.34,10.44,2.76,12.29,7.87c1.08,2.98,0.66,5.87-0.78,8.62c-0.81,1.55-2.15,2.46-3.92,2.66
		C55,49.39,53.81,48.63,52.94,47.22z M52.64,41.88c-0.15-0.69-0.23-1.42-0.47-2.08c-0.37-1.02-1.05-1.79-2.21-1.95
		c-1.2-0.17-2.12,0.33-2.85,1.24c-1.36,1.72-1.16,4.76,0.4,6.32c1.26,1.25,2.9,1.17,4-0.24C52.26,44.22,52.54,43.1,52.64,41.88z"/>
</g>
</svg>
