<?xml version="1.0" encoding="utf-8"?>
<!-- Generator: Adobe Illustrator 25.1.0, SVG Export Plug-In . SVG Version: 6.00 Build 0)  -->
<svg version="1.1" id="Layer_1" xmlns="http://www.w3.org/2000/svg" xmlns:xlink="http://www.w3.org/1999/xlink" x="0px" y="0px"
	 viewBox="0 0 100 100" style="enable-background:new 0 0 100 100;" xml:space="preserve">
<path d="M91.6,66.08c-0.06,0.18-0.13,0.35-0.17,0.53c-0.67,2.58-2.23,4.37-4.78,5.17c-0.72,0.23-0.88,0.54-0.87,1.24
	c0.04,3.74,0.04,7.47,0,11.21c-0.01,0.56-0.16,1.22-0.47,1.66c-0.83,1.17-2.41,1.07-3.39-0.16c-2.19-2.75-4.37-5.52-6.55-8.28
	c-1.12-1.42-2.29-2.81-3.36-4.28c-0.58-0.8-1.25-1.04-2.2-1.04C59.4,72.16,49,72.14,38.6,72.15c-1.46,0-2.86-0.22-4.12-1
	c-2.22-1.38-3.45-3.38-3.46-5.98c-0.04-9.8-0.05-19.6,0-29.41c0.02-3.76,2.95-6.71,6.7-6.94c0.32-0.02,0.65-0.03,0.97-0.03
	c15.08,0,30.16,0.01,45.25-0.01c3.28,0,5.68,1.34,7.08,4.33c0.26,0.55,0.39,1.17,0.58,1.76C91.6,45.28,91.6,55.68,91.6,66.08z
	 M83.17,83.41c0.06-0.02,0.12-0.04,0.18-0.06c0-0.29,0-0.58,0-0.88c0-3.68,0-7.36,0-11.05c0-1.27,0.32-1.62,1.6-1.74
	c2.34-0.23,4.18-2.14,4.19-4.51c0.02-9.8,0.02-19.6,0-29.4c0-2.11-1.51-3.93-3.55-4.4c-0.55-0.12-1.13-0.13-1.69-0.13
	c-15.05-0.01-30.1-0.01-45.16,0c-0.27,0-0.54,0-0.81,0.02c-2.58,0.15-4.48,2.07-4.48,4.64c-0.02,9.72-0.02,19.44,0,29.16
	c0,2.01,1.2,3.73,3.06,4.36c0.67,0.23,1.43,0.28,2.15,0.28c10.4,0.02,20.79,0.03,31.19-0.01c1.71-0.01,3.02,0.52,4.04,1.93
	c1.12,1.56,2.37,3.03,3.56,4.53C79.35,78.58,81.26,80.99,83.17,83.41z M13.45,52.14c0,3.22-0.01,6.44,0,9.67
	c0.01,1.46,1.09,2.47,2.39,2.12c0.55-0.15,1.09-0.6,1.46-1.06c2.88-3.59,5.71-7.22,8.58-10.82c0.24-0.3,0.59-0.55,0.93-0.72
	c0.71-0.33,1.07-0.88,0.89-1.51c-0.19-0.64-0.78-0.96-1.55-0.82c-0.91,0.16-1.55,0.71-2.1,1.42c-2.49,3.17-5,6.33-7.5,9.5
	c-0.17,0.22-0.37,0.43-0.66,0.76c0-0.44,0-0.7,0-0.97c0-3.11,0-6.23,0-9.34c0-0.94-0.37-1.34-1.27-1.47
	c-2.53-0.36-3.77-1.76-3.77-4.31c0-8.18,0-16.36,0-24.53c0-2.76,1.57-4.33,4.33-4.33c13.19,0,26.37,0,39.56,0
	c2.7,0,4.28,1.58,4.29,4.29c0.01,1.38-0.01,2.76,0.01,4.14c0.01,0.86,0.46,1.34,1.18,1.36c0.72,0.01,1.22-0.47,1.23-1.31
	c0.02-1.62,0.07-3.25-0.03-4.87c-0.22-3.56-2.89-6.04-6.47-6.04c-13.35-0.01-26.7-0.01-40.05,0c-3.76,0-6.49,2.76-6.5,6.53
	C8.4,28.17,8.4,36.51,8.42,44.85c0,0.67,0.09,1.36,0.29,1.99c0.71,2.35,2.36,3.74,4.74,4.41C13.45,51.55,13.45,51.85,13.45,52.14z
	 M79.98,41.88c1.27,0,1.84-0.36,1.86-1.17c0.03-0.85-0.58-1.26-1.87-1.26c-12.45,0-24.9,0-37.36,0c-0.32,0-0.66-0.01-0.97,0.07
	c-0.59,0.16-0.92,0.59-0.89,1.2c0.03,0.64,0.41,1.05,1.05,1.15c0.26,0.04,0.54,0.02,0.81,0.02c6.23,0,12.45,0,18.68,0
	S73.76,41.88,79.98,41.88z M42.71,58.1c-0.27,0-0.54-0.01-0.81,0.01c-0.7,0.06-1.1,0.48-1.13,1.15c-0.03,0.65,0.34,1.07,0.97,1.22
	c0.26,0.06,0.54,0.05,0.81,0.05c12.51,0,25.01,0,37.52,0c0.27,0,0.55,0.02,0.81-0.05c0.66-0.16,1.04-0.61,0.97-1.3
	c-0.06-0.64-0.46-1.02-1.12-1.08c-0.27-0.02-0.54-0.01-0.81-0.01c-6.2,0-12.4,0-18.6,0C55.11,58.1,48.91,58.1,42.71,58.1z
	 M42.62,48.77c-1.27,0-1.84,0.37-1.87,1.19c-0.03,0.84,0.58,1.25,1.88,1.25c12.45,0,24.9,0,37.35,0c1.28,0,1.84-0.36,1.86-1.18
	c0.02-0.85-0.57-1.26-1.87-1.26c-6.22,0-12.45,0-18.67,0S48.85,48.77,42.62,48.77z"/>
</svg>
