<svg id="urlshortner_1" data-name="Layer 1" xmlns="http://www.w3.org/2000/svg" viewBox="0 0 100 100"><path d="M11.46,40.48c.11-.42.22-.84.35-1.26a8.18,8.18,0,0,1,7.65-5.83c3.18,0,6.37,0,9.55,0,.87,0,1.4.46,1.4,1.18s-.54,1.18-1.41,1.18H20a5.85,5.85,0,0,0-6.14,6.13c0,1.09,0,2.17,0,3.34H29.17a1.18,1.18,0,1,1,0,2.36H13.83V79.25a5.87,5.87,0,0,0,6.24,6.26H57.39a5.86,5.86,0,0,0,6.2-6.23c0-3.11,0-6.22,0-9.32a1.7,1.7,0,0,1,.46-1.16,1.23,1.23,0,0,1,1.13-.15,1.55,1.55,0,0,1,.72,1,8.7,8.7,0,0,1,0,1.77q0,4,0,7.92a8.18,8.18,0,0,1-7,8.43,1.28,1.28,0,0,0-.27.11H18.57a3.17,3.17,0,0,0-.4-.14,7.71,7.71,0,0,1-5.25-3.48,22,22,0,0,1-1.46-3.49Z"/><path d="M84.92,26.23H35.16V49.8a4.36,4.36,0,0,1,0,.81,1.18,1.18,0,0,1-2.32,0,3,3,0,0,1,0-.67q0-14.65,0-29.32a8.21,8.21,0,0,1,8.52-8.54q18.73,0,37.47,0a8.2,8.2,0,0,1,8.51,8.48q0,18.77,0,37.54a8.2,8.2,0,0,1-8.44,8.48q-14.88,0-29.77,0A1.64,1.64,0,0,1,48,66.25a1.48,1.48,0,0,1-.38-1.16c.09-.35.53-.65.88-.86s.53,0,.8,0H78.55c4,0,6.37-2.42,6.37-6.35q0-15.37,0-30.73Zm0-2.46c0-1.22,0-2.4,0-3.59a5.8,5.8,0,0,0-5.77-5.75q-19.11,0-38.21,0a5.63,5.63,0,0,0-5.64,4.8,32.65,32.65,0,0,0,0,4.54Z"/><path d="M24.64,67a7.86,7.86,0,0,1,2.06-5.48q2.89-3,5.92-5.91a7.44,7.44,0,0,1,5.31-2.06c.89,0,1.39.44,1.39,1.18s-.48,1.17-1.38,1.19a5.54,5.54,0,0,0-4,1.68c-1.76,1.76-3.54,3.5-5.28,5.29a5.52,5.52,0,1,0,7.81,7.81c1.79-1.73,3.54-3.51,5.29-5.28a5.58,5.58,0,0,0,1.69-4.12c0-.88.46-1.39,1.19-1.39s1.16.53,1.17,1.41a7.59,7.59,0,0,1-2.14,5.51c-1.86,1.94-3.74,3.88-5.71,5.7A7.48,7.48,0,0,1,29.4,74,7.65,7.65,0,0,1,24.64,67Z"/><path d="M53.91,37.51a7.88,7.88,0,0,1,5.64,13.42c-1.62,1.63-3.25,3.25-4.87,4.87A8,8,0,0,1,49,58.24a3.06,3.06,0,0,1-.8-.07,1.18,1.18,0,0,1,.22-2.34c.37,0,.75,0,1.11,0A5.45,5.45,0,0,0,53,54.18c1.71-1.71,3.44-3.41,5.13-5.14a5.52,5.52,0,0,0-7.84-7.76c-1.69,1.67-3.35,3.35-5,5a5.53,5.53,0,0,0-1.71,4.19c0,.93-.43,1.49-1.16,1.5s-1.2-.52-1.22-1.46a7.66,7.66,0,0,1,2.17-5.65c1.75-1.8,3.52-3.6,5.34-5.34A7.47,7.47,0,0,1,53.91,37.51Z"/><path d="M52.5,48.08a5.27,5.27,0,0,1-.62,1q-7.59,7.64-15.22,15.23a1.18,1.18,0,0,1-1.77.07A1.17,1.17,0,0,1,35,62.71L50.24,47.42a1.09,1.09,0,0,1,1.4-.3A5.12,5.12,0,0,1,52.5,48.08Z"/><path d="M71.87,19.45a1.21,1.21,0,0,1-1.19,1.18,1.18,1.18,0,0,1,0-2.36A1.22,1.22,0,0,1,71.87,19.45Z"/><path d="M75.41,20.63a1.18,1.18,0,0,1,0-2.36,1.18,1.18,0,0,1,0,2.36Z"/><path d="M80.05,20.63a1.18,1.18,0,1,1,.07-2.36,1.18,1.18,0,0,1-.07,2.36Z"/></svg>