<?xml version="1.0" encoding="utf-8"?>
<!-- Generator: Adobe Illustrator 25.1.0, SVG Export Plug-In . SVG Version: 6.00 Build 0)  -->
<svg version="1.1" id="Layer_1" xmlns="http://www.w3.org/2000/svg" xmlns:xlink="http://www.w3.org/1999/xlink" x="0px" y="0px"
	 viewBox="0 0 100 100" style="enable-background:new 0 0 100 100;" xml:space="preserve">
<path d="M8.89,53.24c0.14-0.56,0.26-1.13,0.41-1.68c0.83-3.1,2.54-5.59,5.13-7.49c0.27-0.2,0.5-0.62,0.52-0.95
	c0.63-9.05,4.18-16.75,10.68-23.06c4.92-4.78,10.79-7.87,17.52-9.1c10.71-1.96,20.42,0.45,28.88,7.36
	c6.49,5.3,10.48,12.16,12.1,20.38c0.29,1.46,0.34,2.96,0.56,4.43c0.05,0.34,0.26,0.75,0.53,0.95c3.62,2.74,5.54,6.34,5.52,10.89
	c-0.01,1.88-0.04,3.8-0.43,5.63c-0.65,3.11-2.46,5.57-5.04,7.43c-0.4,0.29-0.52,0.59-0.53,1.05c-0.05,2.02,0.06,4.07-0.26,6.05
	c-0.8,4.87-5.32,8.61-10.28,8.64c-5.46,0.04-10.93,0.02-16.39,0c-0.64,0-0.89,0.17-1.07,0.8c-0.92,3.22-4.04,5.45-7.18,5.22
	c-3.59-0.26-6.35-2.72-6.89-6.12c-0.58-3.68,1.86-7.3,5.49-8.15c3.67-0.86,7.42,1.23,8.51,4.83c0.25,0.82,0.58,1.04,1.41,1.03
	c5.2-0.04,10.39-0.01,15.59-0.03c4.13-0.01,7.55-2.54,8.37-6.4c0.36-1.67,0.26-3.43,0.38-5.32c-1.1,0.39-2.01,0.45-2.66,1.45
	c-1.71,2.6-4.99,3.65-7.96,2.75c-2.99-0.91-5.09-3.62-5.12-6.89c-0.05-7.25-0.07-14.5,0-21.75c0.04-3.96,2.93-6.86,6.86-7.15
	c0.13-0.01,0.26-0.04,0.53-0.08c-0.37-0.98-0.66-1.95-1.08-2.85c-4.01-8.48-10.65-13.59-19.93-14.92
	c-10.67-1.54-21.22,4.26-25.95,13.96c-0.05,0.1-0.09,0.19-0.14,0.29c-0.44,0.87-1.09,1.17-1.79,0.81c-0.66-0.34-0.82-1.01-0.39-1.87
	c3.86-7.76,9.92-12.9,18.36-14.99c13.16-3.26,26.45,3.26,31.96,15.57c0.57,1.28,0.93,2.65,1.44,3.96c0.14,0.35,0.45,0.66,0.74,0.92
	c0.78,0.71,1.79,1.25,2.35,2.1c0.63,0.95,1.45,1.21,2.58,1.46c-1.17-10.12-5.71-18.23-14.08-23.86
	c-11.01-7.41-22.66-7.96-34.24-1.51C24.13,22.48,18.81,31.15,17.4,42.4c1.04-0.28,1.86-0.38,2.46-1.3c1.69-2.6,4.99-3.69,7.95-2.8
	c3.05,0.92,5.15,3.62,5.18,6.93c0.05,7.22,0.05,14.45,0,21.67c-0.02,3.34-2.19,6.11-5.24,6.96c-3.18,0.89-6.3-0.34-8.18-3.18
	c-0.16-0.24-0.44-0.46-0.71-0.54c-5.48-1.66-8.79-5.27-9.83-10.92c-0.02-0.13-0.09-0.25-0.14-0.37C8.89,56.97,8.89,55.1,8.89,53.24z
	 M81.16,67.46c0.39-0.15,0.69-0.25,0.97-0.38c2.72-1.31,4.6-3.39,5.62-6.23c0.76-2.11,0.73-4.3,0.59-6.48
	C88.04,50.04,85.92,46.9,82,45c-0.24-0.12-0.51-0.19-0.86-0.31c0,0.43,0,0.72,0,1.01c0,3.81,0.01,7.62,0.01,11.43
	c0,0.27,0.03,0.55-0.04,0.79c-0.17,0.6-0.57,0.96-1.22,0.93c-0.65-0.04-1.02-0.4-1.12-1.04c-0.04-0.26-0.03-0.53-0.03-0.8
	c0-2.98,0-5.97,0-8.95c0-1.12,0.04-2.25-0.08-3.35c-0.28-2.63-2.41-4.39-5.06-4.27c-2.35,0.1-4.42,2.15-4.43,4.62
	c-0.05,7.36-0.05,14.71,0,22.07c0.02,2.49,2.02,4.43,4.47,4.55c2.55,0.12,4.72-1.64,5.01-4.16c0.12-1.05,0.08-2.13,0.1-3.19
	c0.01-0.35-0.01-0.69,0.02-1.04c0.06-0.74,0.56-1.25,1.21-1.24c0.65,0.01,1.18,0.52,1.19,1.26C81.18,64.66,81.16,66.01,81.16,67.46z
	 M30.52,56.11c0,0,0.01,0,0.01,0c0-3.46,0.01-6.93-0.01-10.39c0-0.55-0.01-1.13-0.15-1.66c-0.61-2.39-2.81-3.88-5.23-3.6
	c-2.39,0.28-4.19,2.27-4.21,4.86c-0.04,7.17-0.02,14.34-0.01,21.51c0,1.55,0.58,2.87,1.82,3.84c1.52,1.18,3.22,1.4,4.96,0.62
	c1.77-0.8,2.78-2.23,2.8-4.21C30.55,63.41,30.52,59.76,30.52,56.11z M18.49,44.69c-0.34,0.13-0.59,0.2-0.83,0.31
	c-2.36,1.09-4.12,2.79-5.27,5.12c-1.31,2.64-1.23,5.46-1.01,8.28c0.2,2.42,1.19,4.51,2.84,6.27c1.17,1.26,2.56,2.2,4.26,2.76
	C18.49,59.84,18.49,52.34,18.49,44.69z M49.83,87.34c2.68,0,4.82-2.14,4.8-4.82c-0.01-2.61-2.19-4.77-4.81-4.77
	c-2.62,0-4.79,2.16-4.8,4.78C45.01,85.2,47.15,87.34,49.83,87.34z"/>
</svg>
