<?xml version="1.0" encoding="utf-8"?>
<!-- Generator: Adobe Illustrator 25.1.0, SVG Export Plug-In . SVG Version: 6.00 Build 0)  -->
<svg version="1.1" id="Layer_1" xmlns="http://www.w3.org/2000/svg" xmlns:xlink="http://www.w3.org/1999/xlink" x="0px" y="0px"
	 viewBox="0 0 100 100" style="enable-background:new 0 0 100 100;" xml:space="preserve">
<path d="M88.17,52.04c-0.19,1.44-0.33,2.89-0.59,4.32c-1.96,10.66-7.49,19.02-16.43,25.1c-5.19,3.53-10.96,5.57-17.2,6.17
	c-7.89,0.76-15.36-0.75-22.29-4.65c-0.78-0.44-1.42-0.52-2.28-0.24c-4.45,1.42-8.91,2.78-13.38,4.12c-0.47,0.14-1.04,0.2-1.5,0.06
	c-0.78-0.22-1.02-0.99-0.75-1.97c1.31-4.76,2.62-9.53,3.96-14.28c0.16-0.55,0.08-0.97-0.2-1.45c-2.65-4.4-4.34-9.15-4.99-14.24
	c-1.32-10.39,1.1-19.86,7.47-28.2c5.66-7.42,13.12-12.13,22.25-14.11c1.64-0.36,3.32-0.49,4.98-0.73c0.24-0.03,0.48-0.09,0.72-0.13
	c1.48,0,2.97,0,4.45,0c0.19,0.04,0.38,0.11,0.57,0.12c5.95,0.42,11.51,2.12,16.58,5.23c9.85,6.03,15.91,14.73,18.04,26.12
	c0.27,1.42,0.4,2.87,0.59,4.31C88.17,49.07,88.17,50.56,88.17,52.04z M17.19,83.4c0.27-0.07,0.42-0.09,0.55-0.13
	c3.83-1.17,7.67-2.3,11.47-3.55c1.25-0.41,2.23-0.28,3.34,0.39c4.7,2.83,9.84,4.37,15.3,4.7c8.4,0.51,16.04-1.7,22.9-6.61
	c12.13-8.68,17.45-24.69,12.89-38.89c-5.4-16.8-21.88-26.95-39.29-24.08c-8.81,1.45-16.04,5.77-21.6,12.74
	c-5.86,7.35-8.32,15.77-7.5,25.14c0.43,4.92,1.88,9.54,4.3,13.83c1.73,3.08,1.63,1.98,0.68,5.49C19.25,76.06,18.23,79.67,17.19,83.4
	z M60.41,72.86c-6.9-0.24-12.99-2.67-18.41-6.81c-6.54-5-11.34-11.37-14.65-18.9c-2.42-5.51-1.88-10.8,1.04-15.91
	c0.82-1.43,1.89-2.71,2.88-4.03c0.21-0.28,0.54-0.59,0.86-0.66c1.54-0.36,3.13-0.65,4.69-0.26c0.57,0.14,1.21,0.56,1.53,1.05
	c1.97,3.03,3.71,6.18,4.96,9.59c0.55,1.52,0.2,2.95-0.65,4.24c-0.68,1.03-1.5,1.96-2.3,2.9c-0.3,0.35-0.38,0.64-0.23,1.06
	c0.62,1.82,1.79,3.3,3.06,4.68c3.37,3.64,7.3,6.57,11.63,8.99c1.25,0.7,1.46,0.69,2.4-0.37c1.31-1.48,2.57-3.01,3.78-4.56
	c1.07-1.38,2.34-1.82,3.97-1.15c0.68,0.28,1.32,0.68,1.95,1.06c2.59,1.59,5.17,3.2,7.75,4.8c0.97,0.6,1.17,1.05,0.96,2.15
	c-0.5,2.63-1.36,5.11-3.03,7.24c-2.29,2.92-5.42,4.27-9.02,4.69C62.54,72.78,61.47,72.8,60.41,72.86z M61.85,69.89
	c1.08,0.02,3.09-0.21,4.98-1.02c3.4-1.46,4.97-4.28,5.72-7.71c0.04-0.16-0.08-0.45-0.22-0.54c-2.7-1.7-5.41-3.38-8.11-5.07
	c-0.44-0.28-0.7-0.12-1.02,0.28c-1.3,1.61-2.57,3.26-4.02,4.74c-1.8,1.83-3.07,2.06-5.05,1.06c-5.62-2.82-10.51-6.59-14.46-11.5
	c-1.11-1.37-1.96-2.9-2.44-4.62c-0.34-1.2-0.27-2.24,0.73-3.18c0.77-0.72,1.41-1.59,2.05-2.43c0.65-0.86,0.85-1.81,0.31-2.84
	c-1.27-2.4-2.54-4.8-3.75-7.24c-0.35-0.71-0.84-0.82-1.54-0.8c-1.13,0.03-2.05,0.32-2.63,1.4c-0.77,1.43-1.74,2.77-2.4,4.25
	c-1.57,3.55-1.72,7.18-0.16,10.79c3.23,7.48,7.93,13.84,14.51,18.72C49.23,67.82,54.74,69.81,61.85,69.89z"/>
</svg>
